<svg width="20.000000" height="20.000000" viewBox="0 0 20 20" fill="none" xmlns="http://www.w3.org/2000/svg" xmlns:xlink="http://www.w3.org/1999/xlink">
	<desc>
			Created with Pixso.
	</desc>
	<defs/>
	<path id="Vector" d="M3.29 3.38C3.55 3.03 3.86 2.71 4.21 2.46C5.31 1.66 6.87 1.66 10 1.66C13.12 1.66 14.68 1.66 15.78 2.46C16.13 2.71 16.44 3.03 16.7 3.38C17.5 4.47 17.5 6.04 17.5 9.16L17.5 10.83C17.5 13.95 17.5 15.52 16.7 16.61C16.44 16.96 16.13 17.28 15.78 17.53C14.68 18.33 13.12 18.33 10 18.33C6.87 18.33 5.31 18.33 4.21 17.53C3.86 17.28 3.55 16.96 3.29 16.61C2.5 15.52 2.5 13.95 2.5 10.83L2.5 9.16C2.5 6.04 2.5 4.47 3.29 3.38Z" stroke="#DCDCDC" stroke-opacity="1.000000" stroke-width="1.250000" stroke-linejoin="round"/>
	<path id="Vector" d="M13.33 5.83L6.66 5.83M11.25 10L8.75 10" stroke="#DCDCDC" stroke-opacity="1.000000" stroke-width="1.250000" stroke-linejoin="round" stroke-linecap="round"/>
</svg>
