<svg width="20.000000" height="20.000000" viewBox="0 0 20 20" fill="none" xmlns="http://www.w3.org/2000/svg" xmlns:xlink="http://www.w3.org/1999/xlink">
	<desc>
			Created with Pixso.
	</desc>
	<defs/>
	<path id="Vector" d="M9.99 10L10 10M6.66 10L6.67 10" stroke="#DCDCDC" stroke-opacity="1.000000" stroke-width="1.666667" stroke-linejoin="round" stroke-linecap="round"/>
	<path id="Vector" d="M18.33 9.63C18.33 14.04 14.6 17.61 10 17.61C9.45 17.61 8.91 17.56 8.38 17.46C8 17.39 7.81 17.35 7.68 17.37C7.54 17.39 7.35 17.49 6.97 17.69C5.9 18.26 4.65 18.46 3.45 18.24C3.91 17.68 4.22 17 4.36 16.28C4.44 15.84 4.24 15.41 3.93 15.1C2.52 13.67 1.66 11.75 1.66 9.63C1.66 5.23 5.39 1.66 10 1.66C10.57 1.66 11.12 1.72 11.66 1.82" stroke="#DCDCDC" stroke-opacity="1.000000" stroke-width="1.250000" stroke-linejoin="round" stroke-linecap="round"/>
	<path id="Vector" d="M17.94 2.64C18.43 3.12 18.43 3.92 17.94 4.4L14.91 7.48C14.68 7.72 14.37 7.88 14.04 7.94L12.17 8.35C11.87 8.41 11.61 8.15 11.67 7.86L12.07 5.99C12.13 5.66 12.29 5.36 12.53 5.12L15.59 2.06C16.08 1.57 16.87 1.57 17.36 2.06L17.94 2.64Z" stroke="#DCDCDC" stroke-opacity="1.000000" stroke-width="1.250000" stroke-linejoin="round"/>
</svg>
