<svg width="16.000000" height="16.000000" viewBox="0 0 16 16" fill="none" xmlns="http://www.w3.org/2000/svg" xmlns:xlink="http://www.w3.org/1999/xlink">
	<desc>
			Created with Pixso.
	</desc>
	<defs/>
	<path id="Vector" d="M12 1.33L12 2.66M4 1.33L4 2.66" stroke="#727272" stroke-opacity="1.000000" stroke-width="1.000000" stroke-linejoin="round" stroke-linecap="round"/>
	<path id="Vector" d="M7.99 8.66L8 8.66M7.99 11.33L8 11.33M10.66 8.66L10.66 8.66M5.33 8.66L5.33 8.66M5.33 11.33L5.33 11.33" stroke="#727272" stroke-opacity="1.000000" stroke-width="1.333333" stroke-linejoin="round" stroke-linecap="round"/>
	<path id="Vector" d="M2.33 5.33L13.66 5.33" stroke="#727272" stroke-opacity="1.000000" stroke-width="1.000000" stroke-linejoin="round" stroke-linecap="round"/>
	<path id="Vector" d="M2.5 2.9C3.33 2 4.67 2 7.36 2L8.63 2C11.32 2 12.66 2 13.49 2.9C14.33 3.8 14.33 5.25 14.33 8.16L14.33 8.5C14.33 11.4 14.33 12.86 13.49 13.76C12.66 14.66 11.32 14.66 8.63 14.66L7.36 14.66C4.67 14.66 3.33 14.66 2.5 13.76C1.66 12.86 1.66 11.4 1.66 8.5L1.66 8.16C1.66 5.25 1.66 3.8 2.5 2.9Z" stroke="#727272" stroke-opacity="1.000000" stroke-width="1.000000" stroke-linejoin="round"/>
	<path id="Vector" d="M2 5.33L14 5.33" stroke="#727272" stroke-opacity="1.000000" stroke-width="1.000000" stroke-linejoin="round" stroke-linecap="round"/>
</svg>
