<svg width="16.000000" height="16.000000" viewBox="0 0 16 16" fill="none" xmlns="http://www.w3.org/2000/svg" xmlns:xlink="http://www.w3.org/1999/xlink">
	<desc>
			Created with Pixso.
	</desc>
	<defs/>
	<path id="Vector" d="M5.41 13.42C5.17 14.01 5.51 14.66 5.97 14.66L10.02 14.66C10.48 14.66 10.82 14.01 10.58 13.42C10.08 12.17 9.11 11.33 8 11.33C6.88 11.33 5.91 12.17 5.41 13.42Z" stroke="#E1EDFF" stroke-opacity="1.000000" stroke-width="1.300000"/>
	<path id="Vector" d="M12.33 3.33L13.13 3.33C13.93 3.33 14.33 3.33 14.54 3.58C14.75 3.83 14.66 4.21 14.49 4.96L14.23 6.1C13.84 7.8 12.4 9.07 10.66 9.33" stroke="#E1EDFF" stroke-opacity="1.000000" stroke-width="1.300000" stroke-linejoin="round" stroke-linecap="round"/>
	<path id="Vector" d="M3.66 3.33L2.86 3.33C2.06 3.33 1.66 3.33 1.45 3.58C1.24 3.83 1.33 4.21 1.5 4.96L1.76 6.1C2.15 7.8 3.59 9.07 5.33 9.33" stroke="#E1EDFF" stroke-opacity="1.000000" stroke-width="1.300000" stroke-linejoin="round" stroke-linecap="round"/>
	<path id="Vector" d="M12.21 3.99C12.36 2.82 12.43 2.23 12.05 1.78C11.68 1.33 11.08 1.33 9.87 1.33L6.12 1.33C4.91 1.33 4.31 1.33 3.94 1.78C3.56 2.23 3.63 2.82 3.78 3.99C4.28 8.22 5.98 11.33 7.99 11.33C10.01 11.33 11.71 8.22 12.21 3.99Z" stroke="#E1EDFF" stroke-opacity="1.000000" stroke-width="1.300000"/>
</svg>
