<svg width="20.000000" height="20.000000" viewBox="0 0 20 20" fill="none" xmlns="http://www.w3.org/2000/svg" xmlns:xlink="http://www.w3.org/1999/xlink">
	<desc>
			Created with Pixso.
	</desc>
	<defs/>
	<path id="Vector" d="M6.76 16.77C6.46 17.51 6.89 18.33 7.46 18.33L12.53 18.33C13.1 18.33 13.53 17.51 13.23 16.77C12.6 15.22 11.39 14.16 10 14.16C8.6 14.16 7.39 15.22 6.76 16.77Z" stroke="#7A88A3" stroke-opacity="1.000000" stroke-width="1.200000"/>
	<path id="Vector" d="M15.41 4.16L16.41 4.16C17.41 4.16 17.91 4.16 18.18 4.48C18.44 4.79 18.33 5.26 18.11 6.21L17.79 7.62C17.3 9.75 15.5 11.34 13.33 11.66" stroke="#7A88A3" stroke-opacity="1.000000" stroke-width="1.200000" stroke-linejoin="round" stroke-linecap="round"/>
	<path id="Vector" d="M4.58 4.16L3.58 4.16C2.58 4.16 2.08 4.16 1.81 4.48C1.55 4.79 1.66 5.26 1.88 6.21L2.2 7.62C2.69 9.75 4.49 11.34 6.66 11.66" stroke="#7A88A3" stroke-opacity="1.000000" stroke-width="1.200000" stroke-linejoin="round" stroke-linecap="round"/>
	<path id="Vector" d="M15.27 4.99C15.45 3.52 15.53 2.79 15.07 2.23C14.6 1.66 13.85 1.66 12.34 1.66L7.65 1.66C6.14 1.66 5.39 1.66 4.92 2.23C4.46 2.79 4.54 3.52 4.72 4.99C5.36 10.28 7.48 14.16 10 14.16C12.51 14.16 14.63 10.28 15.27 4.99Z" stroke="#7A88A3" stroke-opacity="1.000000" stroke-width="1.200000"/>
</svg>
