<svg width="16.000000" height="16.000000" viewBox="0 0 16 16" fill="none" xmlns="http://www.w3.org/2000/svg" xmlns:xlink="http://www.w3.org/1999/xlink">
	<desc>
			Created with Pixso.
	</desc>
	<defs/>
	<path id="Vector" d="M10.33 8.66C7.94 8.66 6 8.06 6 7.33C6 6.59 7.94 6 10.33 6C12.72 6 14.66 6.59 14.66 7.33C14.66 8.06 12.72 8.66 10.33 8.66Z" stroke="#FFB342" stroke-opacity="1.000000" stroke-width="1.300000"/>
	<path id="Vector" d="M14.66 10.33C14.66 11.06 12.72 11.66 10.33 11.66C7.94 11.66 6 11.06 6 10.33" stroke="#FFB342" stroke-opacity="1.000000" stroke-width="1.300000"/>
	<path id="Vector" d="M14.66 7.33L14.66 13.2C14.66 14.01 12.72 14.66 10.33 14.66C7.94 14.66 6 14.01 6 13.2L6 7.33" stroke="#FFB342" stroke-opacity="1.000000" stroke-width="1.300000"/>
	<path id="Vector" d="M5.66 4C3.27 4 1.33 3.4 1.33 2.66C1.33 1.93 3.27 1.33 5.66 1.33C8.05 1.33 10 1.93 10 2.66C10 3.4 8.05 4 5.66 4Z" stroke="#FFB342" stroke-opacity="1.000000" stroke-width="1.300000"/>
	<path id="Vector" d="M4 7.33C2.73 7.17 1.57 6.78 1.33 6M4 10.66C2.73 10.51 1.57 10.11 1.33 9.33" stroke="#FFB342" stroke-opacity="1.000000" stroke-width="1.300000" stroke-linecap="round"/>
	<path id="Vector" d="M4 14C2.73 13.84 1.57 13.44 1.33 12.66L1.33 2.66" stroke="#FFB342" stroke-opacity="1.000000" stroke-width="1.300000" stroke-linecap="round"/>
	<path id="Vector" d="M10 4L10 2.66" stroke="#FFB342" stroke-opacity="1.000000" stroke-width="1.300000" stroke-linecap="round"/>
</svg>
