<svg width="16.000000" height="16.000000" viewBox="0 0 16 16" fill="none" xmlns="http://www.w3.org/2000/svg" xmlns:xlink="http://www.w3.org/1999/xlink">
	<desc>
			Created with Pixso.
	</desc>
	<defs/>
	<path id="Vector" d="M5.33 9L10.66 9M5.33 5.66L8 5.66" stroke="#404145" stroke-opacity="1.000000" stroke-width="1.000000" stroke-linejoin="round" stroke-linecap="round"/>
	<path id="Vector" d="M4.06 12.66C3.19 12.58 2.54 12.32 2.11 11.88C1.33 11.1 1.33 9.84 1.33 7.33L1.33 7C1.33 4.48 1.33 3.22 2.11 2.44C2.89 1.66 4.15 1.66 6.66 1.66L9.33 1.66C11.84 1.66 13.1 1.66 13.88 2.44C14.66 3.22 14.66 4.48 14.66 7L14.66 7.33C14.66 9.84 14.66 11.1 13.88 11.88C13.1 12.66 11.84 12.66 9.33 12.66C8.95 12.67 8.66 12.7 8.36 12.77C7.57 12.95 6.83 13.36 6.09 13.71C5.05 14.22 4.53 14.48 4.21 14.24C3.58 13.77 4.19 12.33 4.33 11.66" stroke="#404145" stroke-opacity="1.000000" stroke-width="1.000000" stroke-linecap="round"/>
</svg>
