<svg width="20.000000" height="20.000000" viewBox="0 0 20 20" fill="none" xmlns="http://www.w3.org/2000/svg" xmlns:xlink="http://www.w3.org/1999/xlink">
	<desc>
			Created with Pixso.
	</desc>
	<defs/>
	<path id="Vector" d="M6.66 11.25L13.33 11.25M6.66 7.08L10 7.08" stroke="#169C4F" stroke-opacity="1.000000" stroke-width="1.500000" stroke-linejoin="round" stroke-linecap="round"/>
	<path id="Vector" d="M5.08 15.83C3.99 15.72 3.18 15.4 2.64 14.85C1.66 13.88 1.66 12.3 1.66 9.16L1.66 8.75C1.66 5.6 1.66 4.03 2.64 3.05C3.61 2.08 5.19 2.08 8.33 2.08L11.66 2.08C14.8 2.08 16.38 2.08 17.35 3.05C18.33 4.03 18.33 5.6 18.33 8.75L18.33 9.16C18.33 12.3 18.33 13.88 17.35 14.85C16.38 15.83 14.8 15.83 11.66 15.83C11.19 15.84 10.82 15.87 10.46 15.96C9.46 16.19 8.53 16.7 7.62 17.14C6.32 17.78 5.67 18.1 5.26 17.8C4.48 17.22 5.24 15.41 5.41 14.58" stroke="#169C4F" stroke-opacity="1.000000" stroke-width="1.500000" stroke-linecap="round"/>
</svg>
