<svg width="16.000000" height="16.000000" viewBox="0 0 16 16" fill="none" xmlns="http://www.w3.org/2000/svg" xmlns:xlink="http://www.w3.org/1999/xlink">
	<desc>
			Created with Pixso.
	</desc>
	<defs/>
	<path id="Vector" d="M13 3.66L12.58 10.35C12.48 12.05 12.42 12.91 12 13.52C11.78 13.82 11.51 14.08 11.2 14.27C10.56 14.66 9.7 14.66 7.99 14.66C6.28 14.66 5.42 14.66 4.78 14.27C4.46 14.08 4.19 13.82 3.98 13.52C3.55 12.9 3.5 12.05 3.4 10.34L3 3.66" stroke="#727272" stroke-opacity="1.000000" stroke-width="1.000000" stroke-linecap="round"/>
	<path id="Vector" d="M2 3.66L14 3.66M10.7 3.66L10.24 2.72C9.94 2.1 9.79 1.79 9.53 1.59C9.47 1.55 9.41 1.51 9.35 1.48C9.06 1.33 8.71 1.33 8.02 1.33C7.31 1.33 6.95 1.33 6.66 1.48C6.59 1.52 6.53 1.56 6.47 1.6C6.21 1.81 6.06 2.13 5.77 2.78L5.36 3.66" stroke="#727272" stroke-opacity="1.000000" stroke-width="1.000000" stroke-linecap="round"/>
	<path id="Vector" d="M6.33 11L6.33 7" stroke="#727272" stroke-opacity="1.000000" stroke-width="1.000000" stroke-linecap="round"/>
	<path id="Vector" d="M9.66 11L9.66 7" stroke="#727272" stroke-opacity="1.000000" stroke-width="1.000000" stroke-linecap="round"/>
</svg>
