<svg width="16.000000" height="16.000000" viewBox="0 0 16 16" fill="none" xmlns="http://www.w3.org/2000/svg" xmlns:xlink="http://www.w3.org/1999/xlink">
	<desc>
			Created with Pixso.
	</desc>
	<defs/>
	<path id="Vector" d="M10.66 6C10.66 3.42 8.57 1.33 6 1.33C3.42 1.33 1.33 3.42 1.33 6C1.33 8.57 3.42 10.66 6 10.66" stroke="#727272" stroke-opacity="1.000000" stroke-width="1.000000"/>
	<path id="Vector" d="M10 6C8.11 6 7.17 6 6.58 6.58C6 7.17 6 8.11 6 10L6 10.66C6 12.55 6 13.49 6.58 14.08C7.17 14.66 8.11 14.66 10 14.66L10.66 14.66C12.55 14.66 13.49 14.66 14.08 14.08C14.66 13.49 14.66 12.55 14.66 10.66L14.66 10C14.66 8.11 14.66 7.17 14.08 6.58C13.49 6 12.55 6 10.66 6L10 6Z" stroke="#727272" stroke-opacity="1.000000" stroke-width="1.000000"/>
</svg>
