<svg width="20.000000" height="20.000000" viewBox="0 0 20 20" fill="none" xmlns="http://www.w3.org/2000/svg" xmlns:xlink="http://www.w3.org/1999/xlink">
	<desc>
			Created with Pixso.
	</desc>
	<defs/>
	<path id="Vector" d="M14.67 2.98C15.32 2.33 16.37 2.33 17.01 2.98C17.66 3.62 17.66 4.67 17.01 5.32L15.84 6.48L11.48 10.84C10.61 11.72 10.17 12.15 9.64 12.45C9.11 12.74 7.86 13.04 6.66 13.33C6.95 12.13 7.25 10.88 7.54 10.35C7.84 9.82 8.27 9.38 9.15 8.51L13.51 4.15L14.67 2.98ZM13.51 4.15L15.84 6.48" stroke="#DCDCDC" stroke-opacity="1.000000" stroke-width="1.200000" stroke-linejoin="round"/>
	<path id="Vector" d="M17.5 10C17.5 13.53 17.5 15.3 16.4 16.4C15.3 17.5 13.53 17.5 10 17.5C6.46 17.5 4.69 17.5 3.59 16.4C2.5 15.3 2.5 13.53 2.5 10C2.5 6.46 2.5 4.69 3.59 3.59C4.69 2.5 6.46 2.5 10 2.5" stroke="#DCDCDC" stroke-opacity="1.000000" stroke-width="1.200000" stroke-linecap="round"/>
</svg>
