<svg width="26.000000" height="24.000000" viewBox="0 0 26 24" fill="none" xmlns="http://www.w3.org/2000/svg" xmlns:xlink="http://www.w3.org/1999/xlink">
	<desc>
			Created with Pixso.
	</desc>
	<defs/>
	<path id="Vector" d="M1.66 9L7.42 12.26C9.55 13.46 10.44 13.46 12.57 12.26L18.33 9" stroke="#7E8CA7" stroke-opacity="1.000000" stroke-width="1.200000" stroke-linejoin="round"/>
	<path id="Vector" d="M2.7 20C3.64 20.95 4.95 20.98 7.58 21.05C9.19 21.09 10.8 21.09 12.41 21.05C15.04 20.98 16.35 20.95 17.29 20C18.23 19.06 18.26 17.78 18.32 15.22C18.33 14.4 18.33 13.59 18.32 12.77C18.26 10.21 18.23 8.93 17.29 7.99C16.35 7.04 15.04 7.01 12.41 6.94C10.8 6.9 9.19 6.9 7.58 6.94C4.95 7.01 3.64 7.04 2.7 7.99C1.76 8.93 1.73 10.21 1.67 12.77C1.66 13.59 1.66 14.4 1.67 15.22C1.73 17.78 1.76 19.06 2.7 20Z" stroke="#7E8CA7" stroke-opacity="1.000000" stroke-width="1.200000" stroke-linejoin="round"/>
	<rect id="Rectangle 6" x="13.000000" rx="6.000000" width="13.000000" height="12.000000" fill="#FF4F37" fill-opacity="1.000000"/>
	<rect id="Rectangle 6" x="13.250000" y="0.250000" rx="5.750000" width="12.500000" height="11.500000" stroke="#FF4329" stroke-opacity="1.000000" stroke-width="0.500000"/>
	<path id="5" d="M21.76 7.06C21.77 8.23 20.89 9.08 19.59 9.08C18.39 9.08 17.51 8.36 17.49 7.35L18.68 7.35C18.71 7.8 19.1 8.11 19.59 8.11C20.17 8.11 20.58 7.69 20.58 7.09C20.58 6.48 20.16 6.05 19.58 6.05C19.23 6.05 18.88 6.2 18.71 6.44L17.61 6.25L17.89 3.18L21.44 3.18L21.44 4.18L18.9 4.18L18.75 5.64L18.78 5.64C18.99 5.35 19.43 5.14 19.94 5.14C20.99 5.14 21.77 5.94 21.76 7.06Z" fill="#FFFFFF" fill-opacity="1.000000" fill-rule="evenodd"/>
</svg>
