<svg width="16.000000" height="16.000000" viewBox="0 0 16 16" fill="none" xmlns="http://www.w3.org/2000/svg" xmlns:xlink="http://www.w3.org/1999/xlink">
	<desc>
			Created with Pixso.
	</desc>
	<defs/>
	<path id="Vector" d="M14.66 7.99C14.66 8.21 14.56 8.35 14.36 8.63C13.45 9.91 11.12 12.66 8 12.66C4.87 12.66 2.54 9.91 1.63 8.63C1.43 8.35 1.33 8.21 1.33 7.99C1.33 7.78 1.43 7.64 1.63 7.36C2.54 6.08 4.87 3.33 8 3.33C11.12 3.33 13.45 6.08 14.36 7.36C14.56 7.64 14.66 7.78 14.66 7.99Z" stroke="#141B34" stroke-opacity="1.000000" stroke-width="1.000000"/>
	<path id="Vector" d="M8 6C6.89 6 6 6.89 6 8C6 9.1 6.89 10 8 10C9.1 10 10 9.1 10 8C10 6.89 9.1 6 8 6Z" stroke="#141B34" stroke-opacity="1.000000" stroke-width="1.000000"/>
</svg>
