<svg width="13.000000" height="13.000000" viewBox="0 0 13 13" fill="none" xmlns="http://www.w3.org/2000/svg" xmlns:xlink="http://www.w3.org/1999/xlink">
	<desc>
			Created with Pixso.
	</desc>
	<defs/>
	<path id="Vector" d="M0.91 3.46C0.71 3.22 0.65 3.05 0.61 2.74C0.47 1.7 0.41 1.17 0.71 0.83C1.02 0.5 1.56 0.5 2.65 0.5L10.34 0.5C11.43 0.5 11.97 0.5 12.28 0.83C12.58 1.17 12.52 1.7 12.38 2.74C12.34 3.05 12.28 3.22 12.08 3.46C11.43 4.23 10.25 5.6 8.58 6.84C8.43 6.95 8.33 7.13 8.32 7.34C8.15 9.16 8 10.15 7.9 10.66C7.75 11.47 6.6 11.96 5.98 12.4C5.61 12.66 5.16 12.35 5.12 11.95C5.03 11.18 4.85 9.62 4.67 7.34C4.65 7.13 4.55 6.95 4.4 6.83C2.74 5.59 1.56 4.23 0.91 3.46Z" stroke="#5C5C5C" stroke-opacity="0.772549" stroke-width="1.000000" stroke-linejoin="round"/>
</svg>
