<svg width="20.000000" height="20.000000" viewBox="0 0 20 20" fill="none" xmlns="http://www.w3.org/2000/svg" xmlns:xlink="http://www.w3.org/1999/xlink">
	<desc>
			Created with Pixso.
	</desc>
	<defs/>
	<path id="Vector" d="M3.33 9.16L3.33 12.49C3.33 15.24 3.33 16.62 4.18 17.47C5.04 18.33 6.41 18.33 9.16 18.33L10.83 18.33C13.58 18.33 14.95 18.33 15.81 17.47C16.66 16.62 16.66 15.24 16.66 12.49L16.66 9.16" stroke="#727272" stroke-opacity="1.000000" stroke-width="1.250000" stroke-linejoin="round" stroke-linecap="round"/>
	<path id="Vector" d="M2.66 6.33C2.77 6.18 2.93 6.05 3.12 5.96C3.41 5.83 3.8 5.83 4.58 5.83L15.41 5.83C16.19 5.83 16.58 5.83 16.87 5.96C17.06 6.05 17.22 6.18 17.33 6.33C17.5 6.56 17.5 6.87 17.5 7.5C17.5 8.12 17.5 8.43 17.33 8.66C17.22 8.81 17.06 8.94 16.87 9.03C16.58 9.16 16.19 9.16 15.41 9.16L4.58 9.16C3.8 9.16 3.41 9.16 3.12 9.03C2.93 8.94 2.77 8.81 2.66 8.66C2.5 8.43 2.5 8.12 2.5 7.5C2.5 6.87 2.5 6.56 2.66 6.33Z" stroke="#727272" stroke-opacity="1.000000" stroke-width="1.250000" stroke-linejoin="round"/>
	<path id="Vector" d="M6.48 1.66L6.78 1.66C8.56 1.66 10 3.1 10 4.88L10 5.83L7.67 5.83C6.19 5.83 5 4.63 5 3.15C5 2.33 5.66 1.66 6.48 1.66Z" stroke="#727272" stroke-opacity="1.000000" stroke-width="1.250000" stroke-linejoin="round"/>
	<path id="Vector" d="M13.51 1.66L13.21 1.66C11.43 1.66 10 3.1 10 4.88L10 5.83L12.32 5.83C13.8 5.83 15 4.63 15 3.15C15 2.33 14.33 1.66 13.51 1.66Z" stroke="#727272" stroke-opacity="1.000000" stroke-width="1.250000" stroke-linejoin="round"/>
	<path id="Vector" d="M10 9.16L10 18.33" stroke="#727272" stroke-opacity="1.000000" stroke-width="1.250000" stroke-linejoin="round" stroke-linecap="round"/>
</svg>
