<svg width="20.000000" height="20.000000" viewBox="0 0 20 20" fill="none" xmlns="http://www.w3.org/2000/svg" xmlns:xlink="http://www.w3.org/1999/xlink">
	<desc>
			Created with Pixso.
	</desc>
	<defs/>
	<path id="Vector" d="M10 18.33C5.39 18.33 1.66 14.6 1.66 10C1.66 5.39 5.39 1.66 10 1.66C14.6 1.66 18.33 5.39 18.33 10C18.33 14.6 14.6 18.33 10 18.33Z" stroke="#727272" stroke-opacity="1.000000" stroke-width="1.250000"/>
	<path id="Vector" d="M8.33 7.5C8.33 6.57 9.07 5.83 10 5.83C10.92 5.83 11.66 6.57 11.66 7.5C11.66 7.83 11.56 8.14 11.4 8.4C10.9 9.17 10 9.91 10 10.83L10 11.25" stroke="#727272" stroke-opacity="1.000000" stroke-width="1.250000" stroke-linecap="round"/>
	<path id="Vector" d="M9.99 14.16L10 14.16" stroke="#727272" stroke-opacity="1.000000" stroke-width="1.666667" stroke-linejoin="round" stroke-linecap="round"/>
</svg>
