<svg width="16.000000" height="16.000000" viewBox="0 0 16 16" fill="none" xmlns="http://www.w3.org/2000/svg" xmlns:xlink="http://www.w3.org/1999/xlink">
	<desc>
			Created with Pixso.
	</desc>
	<defs/>
	<path id="Vector" d="M8 10.99L8 9.66" stroke="#727272" stroke-opacity="1.000000" stroke-width="1.500000" stroke-linecap="round"/>
	<path id="Vector" d="M5.03 14.6C5.98 14.64 6.94 14.66 7.99 14.66C9.05 14.66 10.01 14.64 10.96 14.6C12.08 14.54 13 13.67 13.15 12.56C13.25 11.83 13.33 11.09 13.33 10.33C13.33 9.57 13.25 8.83 13.15 8.1C13 6.98 12.08 6.11 10.96 6.06C10.01 6.02 9.05 6 7.99 6C6.94 6 5.98 6.02 5.03 6.06C3.91 6.11 2.99 6.98 2.84 8.1C2.74 8.83 2.66 9.57 2.66 10.33C2.66 11.09 2.74 11.83 2.84 12.56C2.99 13.67 3.91 14.54 5.03 14.6Z" stroke="#727272" stroke-opacity="1.000000" stroke-width="1.500000"/>
	<path id="Vector" d="M5 6L5 4.33C5 2.67 6.34 1.33 8 1.33C9.65 1.33 11 2.67 11 4.33L11 6" stroke="#727272" stroke-opacity="1.000000" stroke-width="1.500000" stroke-linejoin="round" stroke-linecap="round"/>
</svg>
