<svg width="20.000000" height="20.000000" viewBox="0 0 20 20" fill="none" xmlns="http://www.w3.org/2000/svg" xmlns:xlink="http://www.w3.org/1999/xlink">
	<desc>
			Created with Pixso.
	</desc>
	<defs/>
	<path id="Vector" d="M5.83 6.45L8.28 7.9C9.71 8.75 10.28 8.75 11.71 7.9L14.16 6.45" stroke="#FFFFFF" stroke-opacity="1.000000" stroke-width="1.250000" stroke-linejoin="round" stroke-linecap="round"/>
	<path id="Vector" d="M18.33 8.95L18.33 8.14C18.27 5.59 18.24 4.31 17.3 3.36C16.36 2.42 15.05 2.38 12.42 2.32C10.8 2.28 9.2 2.28 7.58 2.32C4.96 2.38 3.64 2.42 2.7 3.36C1.76 4.31 1.73 5.59 1.68 8.14C1.66 8.97 1.66 9.78 1.68 10.6C1.73 13.16 1.76 14.44 2.7 15.39C3.64 16.33 4.96 16.37 7.58 16.43C7.97 16.44 8.77 16.45 9.16 16.45" stroke="#FFFFFF" stroke-opacity="1.000000" stroke-width="1.250000" stroke-linejoin="round" stroke-linecap="round"/>
	<path id="Vector" d="M17.95 11.98C18.44 12.47 18.44 13.26 17.95 13.75L14.93 16.83C14.69 17.07 14.39 17.23 14.06 17.29L12.18 17.69C11.89 17.76 11.62 17.5 11.69 17.2L12.09 15.34C12.15 15.01 12.31 14.7 12.54 14.46L15.61 11.4C16.09 10.91 16.89 10.91 17.37 11.4L17.95 11.98Z" stroke="#FFFFFF" stroke-opacity="1.000000" stroke-width="1.250000" stroke-linejoin="round"/>
</svg>
