<svg width="16.000000" height="16.000000" viewBox="0 0 16 16" fill="none" xmlns="http://www.w3.org/2000/svg" xmlns:xlink="http://www.w3.org/1999/xlink">
	<desc>
			Created with Pixso.
	</desc>
	<defs/>
	<path id="Vector" d="M14.63 8.66C14.67 8.1 14.67 7.53 14.63 6.98C14.45 4.15 12.23 1.89 9.44 1.71C8.49 1.65 7.5 1.65 6.55 1.71C3.76 1.89 1.54 4.15 1.36 6.98C1.32 7.53 1.32 8.1 1.36 8.66C1.42 9.69 1.88 10.64 2.41 11.44C2.72 12.01 2.52 12.71 2.2 13.33C1.96 13.77 1.84 13.99 1.94 14.15C2.03 14.31 2.24 14.32 2.66 14.33C3.49 14.35 4.05 14.11 4.49 13.78C4.75 13.6 4.87 13.51 4.96 13.5C5.05 13.48 5.22 13.56 5.56 13.7C5.86 13.82 6.22 13.9 6.55 13.92C7.5 13.99 8.49 13.99 9.44 13.92C12.23 13.74 14.45 11.48 14.63 8.66Z" stroke="#141B34" stroke-opacity="1.000000" stroke-width="1.000000" stroke-linejoin="round"/>
	<path id="Vector" d="M7.99 8L8 8M10.66 8L10.66 8M5.33 8L5.33 8" stroke="#141B34" stroke-opacity="1.000000" stroke-width="1.000000" stroke-linejoin="round" stroke-linecap="round"/>
</svg>
