<svg width="20.000000" height="20.000000" viewBox="0 0 20 20" fill="none" xmlns="http://www.w3.org/2000/svg" xmlns:xlink="http://www.w3.org/1999/xlink">
	<desc>
			Created with Pixso.
	</desc>
	<defs/>
	<path id="Vector" d="M11.49 11.49C11.73 11.25 12.13 11.25 12.91 11.25L16.66 11.25C17.45 11.25 17.84 11.25 18.08 11.49C18.33 11.73 18.33 12.13 18.33 12.91L18.33 16.66C18.33 17.45 18.33 17.84 18.08 18.08C17.84 18.33 17.45 18.33 16.66 18.33L12.91 18.33C12.13 18.33 11.73 18.33 11.49 18.08C11.25 17.84 11.25 17.45 11.25 16.66L11.25 12.91C11.25 12.13 11.25 11.73 11.49 11.49Z" stroke="#727272" stroke-opacity="1.000000" stroke-width="1.250000" stroke-linejoin="round"/>
	<path id="Vector" d="M1.91 1.91C2.15 1.66 2.54 1.66 3.33 1.66L7.08 1.66C7.86 1.66 8.26 1.66 8.5 1.91C8.75 2.15 8.75 2.54 8.75 3.33L8.75 7.08C8.75 7.86 8.75 8.26 8.5 8.5C8.26 8.75 7.86 8.75 7.08 8.75L3.33 8.75C2.54 8.75 2.15 8.75 1.91 8.5C1.66 8.26 1.66 7.86 1.66 7.08L1.66 3.33C1.66 2.54 1.66 2.15 1.91 1.91Z" stroke="#727272" stroke-opacity="1.000000" stroke-width="1.250000" stroke-linejoin="round"/>
	<path id="Vector" d="M1.91 11.49C2.15 11.25 2.54 11.25 3.33 11.25L7.08 11.25C7.86 11.25 8.26 11.25 8.5 11.49C8.75 11.73 8.75 12.13 8.75 12.91L8.75 16.66C8.75 17.45 8.75 17.84 8.5 18.08C8.26 18.33 7.86 18.33 7.08 18.33L3.33 18.33C2.54 18.33 2.15 18.33 1.91 18.08C1.66 17.84 1.66 17.45 1.66 16.66L1.66 12.91C1.66 12.13 1.66 11.73 1.91 11.49Z" stroke="#727272" stroke-opacity="1.000000" stroke-width="1.250000" stroke-linejoin="round"/>
	<path id="Vector" d="M11.49 1.91C11.73 1.66 12.13 1.66 12.91 1.66L16.66 1.66C17.45 1.66 17.84 1.66 18.08 1.91C18.33 2.15 18.33 2.54 18.33 3.33L18.33 7.08C18.33 7.86 18.33 8.26 18.08 8.5C17.84 8.75 17.45 8.75 16.66 8.75L12.91 8.75C12.13 8.75 11.73 8.75 11.49 8.5C11.25 8.26 11.25 7.86 11.25 7.08L11.25 3.33C11.25 2.54 11.25 2.15 11.49 1.91Z" stroke="#727272" stroke-opacity="1.000000" stroke-width="1.250000" stroke-linejoin="round"/>
</svg>
