<svg width="15.000000" height="15.000000" viewBox="0 0 15 15" fill="none" xmlns="http://www.w3.org/2000/svg" xmlns:xlink="http://www.w3.org/1999/xlink">
	<desc>
			Created with Pixso.
	</desc>
	<defs/>
	<path id="Vector" d="M1.9 3.44C2.01 3.32 2.12 3.21 2.25 3.11C3.03 2.5 4.21 2.5 6.56 2.5L8.43 2.5C10.78 2.5 11.96 2.5 12.74 3.11C12.87 3.21 12.98 3.32 13.09 3.44C13.75 4.18 13.75 5.28 13.75 7.5C13.75 9.71 13.75 10.81 13.09 11.55C12.98 11.67 12.87 11.78 12.74 11.88C11.96 12.5 10.78 12.5 8.43 12.5L6.56 12.5C4.21 12.5 3.03 12.5 2.25 11.88C2.12 11.78 2.01 11.67 1.9 11.55C1.25 10.81 1.25 9.71 1.25 7.5C1.25 5.28 1.25 4.18 1.9 3.44Z" stroke="#FF9900" stroke-opacity="1.000000" stroke-width="1.200000" stroke-linejoin="round"/>
	<path id="Vector" d="M7.53 9.06C6.66 9.06 5.96 8.36 5.96 7.5C5.96 6.63 6.66 5.93 7.53 5.93C8.39 5.93 9.09 6.63 9.09 7.5C9.09 8.36 8.39 9.06 7.53 9.06Z" stroke="#FF9900" stroke-opacity="1.000000" stroke-width="1.200000"/>
	<path id="Vector" d="M3.12 7.5L3.75 7.5" stroke="#FF9900" stroke-opacity="1.000000" stroke-width="1.200000" stroke-linecap="round"/>
	<path id="Vector" d="M11.25 7.5L11.87 7.5" stroke="#FF9900" stroke-opacity="1.000000" stroke-width="1.200000" stroke-linecap="round"/>
</svg>
