<svg width="20.000000" height="20.000000" viewBox="0 0 20 20" fill="none" xmlns="http://www.w3.org/2000/svg" xmlns:xlink="http://www.w3.org/1999/xlink">
	<desc>
			Created with Pixso.
	</desc>
	<defs/>
	<path id="Vector" d="M10 2.5L10 7.5" stroke="#DCDCDC" stroke-opacity="1.000000" stroke-width="1.250000" stroke-linejoin="round" stroke-linecap="round"/>
	<path id="Vector" d="M2.5 10L7.5 10" stroke="#DCDCDC" stroke-opacity="1.000000" stroke-width="1.250000" stroke-linejoin="round" stroke-linecap="round"/>
	<path id="Vector" d="M17.5 10L12.5 10" stroke="#DCDCDC" stroke-opacity="1.000000" stroke-width="1.250000" stroke-linejoin="round" stroke-linecap="round"/>
	<path id="Vector" d="M10 17.5L10 12.08" stroke="#DCDCDC" stroke-opacity="1.000000" stroke-width="1.250000" stroke-linejoin="round" stroke-linecap="round"/>
	<path id="Vector" d="M7.5 5L8.92 3.37C9.42 2.79 9.68 2.5 10 2.5C10.31 2.5 10.57 2.79 11.07 3.37L12.5 5" stroke="#DCDCDC" stroke-opacity="1.000000" stroke-width="1.250000" stroke-linejoin="round" stroke-linecap="round"/>
	<path id="Vector" d="M12.5 15L11.07 16.62C10.57 17.2 10.31 17.5 10 17.5C9.68 17.5 9.42 17.2 8.92 16.62L7.5 15" stroke="#DCDCDC" stroke-opacity="1.000000" stroke-width="1.250000" stroke-linejoin="round" stroke-linecap="round"/>
	<path id="Vector" d="M15 7.5L16.62 8.92C17.2 9.42 17.5 9.68 17.5 10C17.5 10.31 17.2 10.57 16.62 11.07L15 12.5" stroke="#DCDCDC" stroke-opacity="1.000000" stroke-width="1.250000" stroke-linejoin="round" stroke-linecap="round"/>
	<path id="Vector" d="M5 12.5L3.37 11.07C2.79 10.57 2.5 10.31 2.5 10C2.5 9.68 2.79 9.42 3.37 8.92L5 7.5" stroke="#DCDCDC" stroke-opacity="1.000000" stroke-width="1.250000" stroke-linejoin="round" stroke-linecap="round"/>
</svg>
