<svg width="28.000000" height="28.000000" viewBox="0 0 28 28" fill="none" xmlns="http://www.w3.org/2000/svg" xmlns:xlink="http://www.w3.org/1999/xlink">
	<desc>
			Created with Pixso.
	</desc>
	<defs/>
	<path id="Vector" d="M1.83 11.5L8.17 15.09C10.5 16.41 11.49 16.41 13.82 15.09L20.16 11.5" stroke="#DCDCDC" stroke-opacity="1.000000" stroke-width="1.500000" stroke-linejoin="round"/>
	<path id="Vector" d="M2.97 23.6C4.01 24.64 5.45 24.68 8.34 24.75C10.11 24.8 11.88 24.8 13.65 24.75C16.54 24.68 17.98 24.64 19.02 23.6C20.06 22.56 20.09 21.16 20.15 18.35C20.17 17.44 20.17 16.55 20.15 15.64C20.09 12.83 20.06 11.43 19.02 10.39C17.98 9.35 16.54 9.31 13.65 9.24C11.88 9.19 10.11 9.19 8.34 9.24C5.45 9.31 4.01 9.35 2.97 10.39C1.93 11.43 1.9 12.83 1.84 15.64C1.82 16.55 1.82 17.44 1.84 18.35C1.9 21.16 1.93 22.56 2.97 23.6Z" stroke="#DCDCDC" stroke-opacity="1.000000" stroke-width="1.500000" stroke-linejoin="round"/>
	<rect id="Rectangle 43" x="14.000000" rx="7.000000" width="14.000000" height="14.000000" fill="#FE3030" fill-opacity="1.000000"/>
	<path id="5" d="M23.5 8.64C23.5 10.06 22.46 11.1 21 11.1C19.66 11.1 18.65 10.26 18.61 9.1L19.68 9.1C19.73 9.72 20.29 10.17 21 10.17C21.83 10.17 22.44 9.54 22.44 8.67C22.44 7.78 21.81 7.13 20.95 7.13C20.51 7.13 20.02 7.29 19.75 7.54L18.74 7.39L19.15 3.72L23.15 3.72L23.15 4.66L20.06 4.66L19.83 6.7L19.87 6.7C20.16 6.42 20.66 6.21 21.2 6.21C22.52 6.21 23.5 7.24 23.5 8.64Z" fill="#FFFFFF" fill-opacity="1.000000" fill-rule="evenodd"/>
</svg>
