<svg width="22.000000" height="22.000000" viewBox="0 0 22 22" fill="none" xmlns="http://www.w3.org/2000/svg" xmlns:xlink="http://www.w3.org/1999/xlink">
	<desc>
			Created with Pixso.
	</desc>
	<defs/>
	<path id="Vector" d="M4.06 16.14C8.15 17.84 13.84 17.84 17.93 16.14C19 15.7 19.87 14.81 19.68 13.53C19.56 12.75 18.96 12.09 18.52 11.46C17.95 10.61 17.89 9.69 17.89 8.7C17.89 4.91 14.8 1.83 11 1.83C7.19 1.83 4.1 4.91 4.1 8.7C4.1 9.69 4.04 10.61 3.47 11.46C3.03 12.09 2.43 12.75 2.31 13.53C2.12 14.81 2.99 15.7 4.06 16.14Z" stroke="#DCDCDC" stroke-opacity="1.000000" stroke-width="1.500000" stroke-linejoin="round"/>
	<path id="Vector" d="M7.33 17.41C7.75 18.99 9.23 20.16 11 20.16C12.76 20.16 14.24 18.99 14.66 17.41" stroke="#DCDCDC" stroke-opacity="1.000000" stroke-width="1.500000" stroke-linejoin="round" stroke-linecap="round"/>
</svg>
