<svg width="22.000000" height="22.000000" viewBox="0 0 22 22" fill="none" xmlns="http://www.w3.org/2000/svg" xmlns:xlink="http://www.w3.org/1999/xlink">
	<desc>
			Created with Pixso.
	</desc>
	<defs/>
	<path id="Vector" d="M19.08 5.76C18.74 5.16 18.57 4.87 18.28 4.75C17.99 4.63 17.66 4.72 17 4.91L15.88 5.22C15.46 5.32 15.02 5.27 14.64 5.07L14.33 4.89C14 4.68 13.75 4.37 13.61 4L13.3 3.09C13.1 2.48 13 2.18 12.76 2.01C12.52 1.84 12.2 1.84 11.56 1.84L10.54 1.84C9.9 1.84 9.59 1.84 9.35 2.01C9.11 2.18 9.01 2.48 8.81 3.09L8.5 4C8.36 4.37 8.11 4.68 7.78 4.89L7.47 5.07C7.08 5.27 6.64 5.32 6.22 5.22L5.1 4.91C4.45 4.72 4.12 4.63 3.83 4.75C3.53 4.87 3.36 5.16 3.02 5.76L2.57 6.54C2.25 7.1 2.09 7.38 2.12 7.67C2.15 7.97 2.36 8.21 2.79 8.69L3.74 9.74C3.97 10.03 4.13 10.54 4.13 11C4.13 11.46 3.97 11.97 3.74 12.26L2.79 13.32C2.36 13.8 2.15 14.04 2.12 14.33C2.09 14.63 2.25 14.91 2.57 15.46L3.02 16.25C3.36 16.84 3.53 17.14 3.83 17.26C4.12 17.38 4.45 17.28 5.1 17.1L6.22 16.78C6.64 16.68 7.08 16.74 7.47 16.94L7.78 17.11C8.11 17.32 8.36 17.64 8.5 18L8.81 18.92C9.01 19.52 9.11 19.82 9.35 20C9.59 20.17 9.9 20.17 10.54 20.17L11.56 20.17C12.2 20.17 12.52 20.17 12.76 20C13 19.82 13.1 19.52 13.3 18.92L13.61 18C13.75 17.64 14 17.32 14.33 17.11L14.64 16.94C15.02 16.74 15.46 16.68 15.88 16.78L17 17.1C17.66 17.28 17.99 17.38 18.28 17.26C18.57 17.14 18.74 16.84 19.08 16.25L19.54 15.46C19.86 14.91 20.02 14.63 19.99 14.33C19.95 14.04 19.74 13.8 19.31 13.32L18.37 12.26C18.13 11.97 17.97 11.46 17.97 11C17.97 10.54 18.13 10.03 18.37 9.74L19.31 8.69C19.74 8.21 19.95 7.97 19.99 7.67C20.02 7.38 19.86 7.1 19.54 6.54L19.08 5.76Z" stroke="#DCDCDC" stroke-opacity="1.000000" stroke-width="1.500000"/>
	<path id="Vector" d="M11.01 14.2C9.24 14.2 7.8 12.77 7.8 11C7.8 9.22 9.24 7.79 11.01 7.79C12.78 7.79 14.22 9.22 14.22 11C14.22 12.77 12.78 14.2 11.01 14.2Z" stroke="#DCDCDC" stroke-opacity="1.000000" stroke-width="1.500000"/>
</svg>
