<svg width="22.000000" height="22.000000" viewBox="0 0 22 22" fill="none" xmlns="http://www.w3.org/2000/svg" xmlns:xlink="http://www.w3.org/1999/xlink">
	<desc>
			Created with Pixso.
	</desc>
	<defs/>
	<path id="Vector" d="M11.45 20.16L6.04 20.16C4.62 20.16 3.49 19.47 2.48 18.51C0.41 16.54 3.81 14.96 5.11 14.19C7.03 13.04 9.29 12.62 11.45 12.92C12.24 13.04 13 13.24 13.75 13.54" stroke="#DCDCDC" stroke-opacity="1.000000" stroke-width="1.500000" stroke-linejoin="round" stroke-linecap="round"/>
	<path id="Vector" d="M11 10.08C8.72 10.08 6.87 8.23 6.87 5.95C6.87 3.68 8.72 1.83 11 1.83C13.27 1.83 15.12 3.68 15.12 5.95C15.12 8.23 13.27 10.08 11 10.08Z" stroke="#DCDCDC" stroke-opacity="1.000000" stroke-width="1.500000"/>
	<path id="Vector" d="M16.95 20.16L16.95 13.75M13.75 16.95L20.16 16.95" stroke="#DCDCDC" stroke-opacity="1.000000" stroke-width="1.500000" stroke-linecap="round"/>
</svg>
