<svg width="16.000000" height="16.000000" viewBox="0 0 16 16" fill="none" xmlns="http://www.w3.org/2000/svg" xmlns:xlink="http://www.w3.org/1999/xlink">
	<desc>
			Created with Pixso.
	</desc>
	<defs/>
	<path id="Vector" d="M12 10L12 6C12 4.11 12 3.17 11.41 2.58C10.82 2 9.88 2 8 2L5.33 2C3.44 2 2.5 2 1.91 2.58C1.33 3.17 1.33 4.11 1.33 6L1.33 10C1.33 11.88 1.33 12.82 1.91 13.41C2.5 14 3.44 14 5.33 14L13.33 14" stroke="#7A88A3" stroke-opacity="1.000000" stroke-width="1.000000" stroke-linejoin="round" stroke-linecap="round"/>
	<path id="Vector" d="M4 5.33L9.33 5.33" stroke="#7A88A3" stroke-opacity="1.000000" stroke-width="1.000000" stroke-linejoin="round" stroke-linecap="round"/>
	<path id="Vector" d="M4 8L9.33 8" stroke="#7A88A3" stroke-opacity="1.000000" stroke-width="1.000000" stroke-linejoin="round" stroke-linecap="round"/>
	<path id="Vector" d="M4 10.66L6.66 10.66" stroke="#7A88A3" stroke-opacity="1.000000" stroke-width="1.000000" stroke-linejoin="round" stroke-linecap="round"/>
	<path id="Vector" d="M12.66 5.33C13.6 5.33 14.08 5.33 14.37 5.62C14.66 5.91 14.66 6.39 14.66 7.33L14.66 12.66C14.66 13.4 14.06 14 13.33 14C12.59 14 12 13.4 12 12.66L12 5.33L12.66 5.33Z" stroke="#7A88A3" stroke-opacity="1.000000" stroke-width="1.000000" stroke-linejoin="round"/>
</svg>
