<svg width="17.882324" height="19.000000" viewBox="0 0 17.8823 19" fill="none" xmlns="http://www.w3.org/2000/svg" xmlns:xlink="http://www.w3.org/1999/xlink">
	<desc>
			Created with Pixso.
	</desc>
	<defs>
		<clipPath id="clip0_178">
			<rect id="news 1" rx="-0.500000" width="16.882353" height="18.000000" transform="translate(0.500000 0.500000)" fill="white" fill-opacity="0"/>
		</clipPath>
	</defs>
	<rect id="news 1" rx="-0.500000" width="16.882353" height="18.000000" transform="translate(0.500000 0.500000)" fill="#FFFFFF" fill-opacity="0"/>
	<g clip-path="url(#clip0_178)">
		<path id="Vector" d="M3.39 12.59C3.16 12.59 2.98 12.81 3.03 13.05C3.15 13.67 3.35 14.76 3.46 15.31C3.61 16.12 4.05 16.43 4.67 16.43C5.34 16.43 5.89 15.86 5.89 15.16L5.89 12.97C5.89 12.76 5.72 12.59 5.52 12.59L3.39 12.59Z" fill="#FF7442" fill-opacity="1.000000" fill-rule="nonzero"/>
		<path id="Vector" d="M2.94 6.45C1.72 6.45 0.73 7.48 0.73 8.76C0.73 10.03 1.72 11.06 2.94 11.06C4.05 11.06 4.41 11.06 5.52 11.06C5.72 11.06 5.89 10.89 5.89 10.67L5.89 6.84C5.89 6.63 5.72 6.45 5.52 6.45C4.41 6.45 4.05 6.45 2.94 6.45Z" fill="#FF7442" fill-opacity="1.000000" fill-rule="nonzero"/>
		<path id="Vector" d="M7.59 5.79C7.45 5.85 7.36 5.99 7.36 6.15L7.36 11.37C7.36 11.52 7.45 11.66 7.59 11.72C7.86 11.85 8.12 11.99 8.37 12.15L11.76 14.27C12.74 14.88 13.99 14.14 13.99 12.95L13.99 4.56C13.99 3.37 12.74 2.63 11.76 3.25L8.37 5.36C8.12 5.52 7.86 5.66 7.59 5.79Z" fill="#FF7442" fill-opacity="1.000000" fill-rule="nonzero"/>
		<path id="Vector" d="M15.46 7.99C15.46 7.56 15.79 7.22 16.2 7.22C16.6 7.22 16.93 7.56 16.93 7.99L16.93 9.52C16.93 9.95 16.6 10.29 16.2 10.29C15.79 10.29 15.46 9.95 15.46 9.52L15.46 7.99Z" fill="#FF7442" fill-opacity="1.000000" fill-rule="nonzero"/>
	</g>
</svg>
