<svg width="74.000000" height="74.000000" viewBox="0 0 74 74" fill="none" xmlns="http://www.w3.org/2000/svg" xmlns:xlink="http://www.w3.org/1999/xlink">
	<desc>
			Created with Pixso.
	</desc>
	<defs/>
	<path id="Vector" d="M55.5 56.01C42.33 59.93 25.87 59.36 13.66 54.3C10.07 52.82 7.14 49.83 7.8 45.53C8.2 42.89 10.19 40.69 11.67 38.55C13.6 35.7 13.79 32.59 13.79 29.29C13.79 25.03 14.94 20.38 16.95 16.95" stroke="#AFAFAF" stroke-opacity="1.000000" stroke-width="4.625000" stroke-linejoin="round" stroke-linecap="round"/>
	<path id="Vector" d="M23.12 10.75C26.99 7.87 31.79 6.16 36.98 6.16C49.79 6.16 60.17 16.52 60.17 29.29C60.17 32.59 60.36 35.7 62.29 38.55C63.77 40.69 65.76 42.89 66.16 45.53C66.53 47.97 66.11 49.31 64.71 50.87" stroke="#AFAFAF" stroke-opacity="1.000000" stroke-width="4.625000" stroke-linejoin="round" stroke-linecap="round"/>
	<path id="Vector" d="M67.83 67.83L6.16 6.16" stroke="#AFAFAF" stroke-opacity="1.000000" stroke-width="4.625000" stroke-linecap="round"/>
	<path id="Vector" d="M24.66 58.58C26.08 63.9 31.06 67.83 37 67.83C42.93 67.83 47.91 63.9 49.33 58.58" stroke="#AFAFAF" stroke-opacity="1.000000" stroke-width="4.625000" stroke-linejoin="round" stroke-linecap="round"/>
</svg>
