<svg width="24.000000" height="24.000000" viewBox="0 0 24 24" fill="none" xmlns="http://www.w3.org/2000/svg" xmlns:xlink="http://www.w3.org/1999/xlink">
	<desc>
			Created with Pixso.
	</desc>
	<defs/>
	<path id="Vector" d="M3.69 18.67C7.41 20.21 12.58 20.21 16.3 18.67C17.27 18.27 18.06 17.46 17.89 16.3C17.78 15.59 17.24 14.99 16.84 14.41C16.32 13.64 16.27 12.8 16.27 11.91C16.27 8.46 13.46 5.66 10 5.66C6.53 5.66 3.72 8.46 3.72 11.91C3.72 12.8 3.67 13.64 3.15 14.41C2.75 14.99 2.21 15.59 2.1 16.3C1.93 17.46 2.72 18.27 3.69 18.67Z" stroke="#7E8CA7" stroke-opacity="1.000000" stroke-width="1.200000" stroke-linejoin="round"/>
	<path id="Vector" d="M6.66 19.83C7.04 21.27 8.39 22.33 10 22.33C11.6 22.33 12.95 21.27 13.33 19.83" stroke="#7E8CA7" stroke-opacity="1.000000" stroke-width="1.200000" stroke-linejoin="round" stroke-linecap="round"/>
	<rect id="Rectangle 6" x="11.000000" rx="6.000000" width="13.000000" height="12.000000" fill="#FF4F37" fill-opacity="1.000000"/>
	<rect id="Rectangle 6" x="11.250000" y="0.250000" rx="5.750000" width="12.500000" height="11.500000" stroke="#FF4329" stroke-opacity="1.000000" stroke-width="0.500000"/>
	<path id="5" d="M19.76 7.06C19.77 8.23 18.89 9.08 17.59 9.08C16.39 9.08 15.51 8.36 15.49 7.35L16.68 7.35C16.71 7.8 17.1 8.11 17.59 8.11C18.17 8.11 18.58 7.69 18.58 7.09C18.58 6.48 18.16 6.05 17.58 6.05C17.23 6.05 16.88 6.2 16.71 6.44L15.61 6.25L15.89 3.18L19.44 3.18L19.44 4.18L16.9 4.18L16.75 5.64L16.78 5.64C16.99 5.35 17.43 5.14 17.94 5.14C18.99 5.14 19.77 5.94 19.76 7.06Z" fill="#FFFFFF" fill-opacity="1.000000" fill-rule="evenodd"/>
</svg>
