<svg width="16.000000" height="16.000000" viewBox="0 0 16 16" fill="none" xmlns="http://www.w3.org/2000/svg" xmlns:xlink="http://www.w3.org/1999/xlink">
	<desc>
			Created with Pixso.
	</desc>
	<defs/>
	<path id="Vector" d="M2.95 11.74C5.92 12.97 10.07 12.97 13.04 11.74C13.82 11.42 14.45 10.77 14.31 9.84C14.22 9.27 13.79 8.79 13.47 8.33C13.05 7.71 13.01 7.04 13.01 6.33C13.01 3.57 10.77 1.33 8 1.33C5.22 1.33 2.98 3.57 2.98 6.33C2.98 7.04 2.94 7.71 2.52 8.33C2.2 8.79 1.77 9.27 1.68 9.84C1.54 10.77 2.17 11.42 2.95 11.74Z" stroke="#727272" stroke-opacity="1.000000" stroke-width="1.200000" stroke-linejoin="round"/>
	<path id="Vector" d="M5.33 12.66C5.63 13.81 6.71 14.66 8 14.66C9.28 14.66 10.36 13.81 10.66 12.66" stroke="#727272" stroke-opacity="1.000000" stroke-width="1.200000" stroke-linejoin="round" stroke-linecap="round"/>
</svg>
