<svg width="24.000000" height="24.000000" viewBox="0 0 24 24" fill="none" xmlns="http://www.w3.org/2000/svg" xmlns:xlink="http://www.w3.org/1999/xlink">
	<desc>
			Created with Pixso.
	</desc>
	<defs/>
	<path id="Vector" d="M19.5 10.5C18.67 10.5 18 11.17 18 12C18 12.82 18.67 13.5 19.5 13.5C20.32 13.5 21 12.82 21 12C21 11.17 20.32 10.5 19.5 10.5Z" stroke="#DCDCDC" stroke-opacity="1.000000" stroke-width="1.500000"/>
	<path id="Vector" d="M12 10.5C11.17 10.5 10.5 11.17 10.5 12C10.5 12.82 11.17 13.5 12 13.5C12.82 13.5 13.5 12.82 13.5 12C13.5 11.17 12.82 10.5 12 10.5Z" stroke="#DCDCDC" stroke-opacity="1.000000" stroke-width="1.500000"/>
	<path id="Vector" d="M4.5 10.5C3.67 10.5 3 11.17 3 12C3 12.82 3.67 13.5 4.5 13.5C5.32 13.5 6 12.82 6 12C6 11.17 5.32 10.5 4.5 10.5Z" stroke="#DCDCDC" stroke-opacity="1.000000" stroke-width="1.500000"/>
</svg>
