<svg width="20.000000" height="20.000000" viewBox="0 0 20 20" fill="none" xmlns="http://www.w3.org/2000/svg" xmlns:xlink="http://www.w3.org/1999/xlink">
	<desc>
			Created with Pixso.
	</desc>
	<defs/>
	<path id="Vector" d="M9.18 18.33L9.18 10.81L9.18 4.96C9.18 4.15 9.18 3.74 8.87 3.49C8.55 3.24 8.21 3.32 7.52 3.47C4.17 4.23 1.66 7.22 1.66 10.81C1.66 14.96 5.03 18.33 9.18 18.33C12.77 18.33 15.76 15.82 16.52 12.47C16.67 11.78 16.75 11.44 16.5 11.12C16.25 10.81 15.84 10.81 15.03 10.81L9.18 10.81" stroke="#727272" stroke-opacity="1.000000" stroke-width="1.250000" stroke-linejoin="round"/>
	<path id="Vector" d="M14.14 2.03C13.23 1.67 12.77 1.49 12.22 1.87C11.66 2.25 11.66 2.87 11.66 4.1L11.66 5.79C11.66 6.99 11.66 7.59 12.03 7.96C12.4 8.33 13 8.33 14.2 8.33L15.89 8.33C17.12 8.33 17.74 8.33 18.12 7.77C18.5 7.22 18.32 6.76 17.96 5.85C17.27 4.11 15.88 2.72 14.14 2.03Z" stroke="#727272" stroke-opacity="1.000000" stroke-width="1.250000" stroke-linejoin="round"/>
</svg>
