<svg width="16.000000" height="16.000000" viewBox="0 0 16 16" fill="none" xmlns="http://www.w3.org/2000/svg" xmlns:xlink="http://www.w3.org/1999/xlink">
	<desc>
			Created with Pixso.
	</desc>
	<defs/>
	<path id="Vector" d="M2 13.99L5.33 10.66" stroke="#727272" stroke-opacity="1.000000" stroke-width="1.000000" stroke-linejoin="round" stroke-linecap="round"/>
	<path id="Vector" d="M3.41 7.16C3.32 6.76 3.28 6.56 3.41 6.24C3.54 5.92 3.7 5.82 4.02 5.63C4.73 5.18 5.51 5.03 6.32 5.11C7.45 5.21 8.01 5.26 8.3 5.11C8.58 4.96 8.77 4.62 9.15 3.93L9.64 3.06C9.96 2.49 10.12 2.2 10.5 2.06C10.87 1.93 11.1 2.01 11.55 2.17C12.61 2.56 13.43 3.38 13.82 4.44C13.98 4.89 14.06 5.12 13.93 5.49C13.79 5.87 13.5 6.03 12.93 6.35L12.04 6.85C11.35 7.23 11.01 7.42 10.86 7.71C10.72 7.99 10.77 8.55 10.88 9.65C10.96 10.47 10.82 11.25 10.37 11.97C10.17 12.29 10.07 12.45 9.75 12.58C9.43 12.71 9.23 12.67 8.83 12.58C6.34 12.01 3.98 9.65 3.41 7.16Z" stroke="#727272" stroke-opacity="1.000000" stroke-width="1.000000" stroke-linejoin="round"/>
</svg>
