<svg width="16.249878" height="16.250000" viewBox="0 0 16.2499 16.25" fill="none" xmlns="http://www.w3.org/2000/svg" xmlns:xlink="http://www.w3.org/1999/xlink">
	<desc>
			Created with Pixso.
	</desc>
	<defs/>
	<path id="Vector" d="M0.62 15.62L0.73 14.88C0.89 13.75 0.97 13.18 1.22 12.68C1.47 12.18 1.87 11.78 2.68 10.97L12.27 1.38C12.63 1.03 12.8 0.85 12.99 0.75C13.35 0.58 13.78 0.58 14.14 0.75C14.33 0.85 14.51 1.03 14.86 1.38C15.21 1.73 15.39 1.91 15.49 2.1C15.66 2.46 15.66 2.89 15.49 3.25C15.39 3.44 15.21 3.61 14.86 3.97L5.27 13.56C4.46 14.37 4.06 14.77 3.56 15.02C3.06 15.27 2.49 15.35 1.36 15.51L0.62 15.62Z" stroke="#727272" stroke-opacity="1.000000" stroke-width="1.250000" stroke-linejoin="round"/>
</svg>
