<svg width="16.000000" height="16.000000" viewBox="0 0 16 16" fill="none" xmlns="http://www.w3.org/2000/svg" xmlns:xlink="http://www.w3.org/1999/xlink">
	<desc>
			Created with Pixso.
	</desc>
	<defs/>
	<path id="Vector" d="M8 14.08C7.56 14.08 7.13 14.04 6.71 13.96C6.4 13.91 6.25 13.88 6.14 13.89C6.03 13.91 5.88 13.99 5.58 14.15C4.72 14.61 3.72 14.77 2.76 14.59C3.13 14.14 3.38 13.6 3.49 13.02C3.55 12.67 3.39 12.33 3.14 12.08C2.02 10.94 1.33 9.4 1.33 7.71C1.33 4.18 4.31 1.33 8 1.33C11.68 1.33 14.66 4.18 14.66 7.71C14.66 11.23 11.68 14.08 8 14.08Z" stroke="#DCDCDC" stroke-opacity="1.000000" stroke-width="1.200000" stroke-linejoin="round"/>
	<path id="Vector" d="M7.99 8L8 8M10.66 8L10.66 8M5.33 8L5.33 8" stroke="#DCDCDC" stroke-opacity="1.000000" stroke-width="1.300000" stroke-linejoin="round" stroke-linecap="round"/>
</svg>
