<svg width="16.000000" height="16.000000" viewBox="0 0 16 16" fill="none" xmlns="http://www.w3.org/2000/svg" xmlns:xlink="http://www.w3.org/1999/xlink">
	<desc>
			Created with Pixso.
	</desc>
	<defs/>
	<path id="Vector" d="M7.03 2C4.46 2 3.12 2.06 2.26 2.92C1.33 3.85 1.33 5.34 1.33 8.33C1.33 11.31 1.33 12.81 2.26 13.73C3.18 14.66 4.68 14.66 7.66 14.66C10.65 14.66 12.14 14.66 13.07 13.73C13.93 12.87 13.99 11.53 14 8.96" stroke="#727272" stroke-opacity="1.000000" stroke-width="1.000000" stroke-linejoin="round" stroke-linecap="round"/>
	<path id="Vector" d="M14.65 1.44C14.79 3.46 13.8 4.21 11.92 4.56C12.28 4.94 12.92 5.42 12.86 6.01C12.81 6.44 12.52 6.65 11.94 7.06C10.68 7.98 9.21 8.55 7.37 8.66C6.88 2.57 11.2 0.85 14.65 1.44Z" stroke="#727272" stroke-opacity="1.000000" stroke-width="1.000000" stroke-linejoin="round"/>
	<path id="Vector" d="M6 11.33C7.33 7.66 8.64 6.42 10 5.33" stroke="#727272" stroke-opacity="1.000000" stroke-width="1.000000" stroke-linejoin="round" stroke-linecap="round"/>
</svg>
