<svg width="20.000000" height="20.000000" viewBox="0 0 20 20" fill="none" xmlns="http://www.w3.org/2000/svg" xmlns:xlink="http://www.w3.org/1999/xlink">
	<desc>
			Created with Pixso.
	</desc>
	<defs/>
	<path id="Vector" d="M3.24 3.24C4.4 2.08 6.26 2.08 10 2.08C13.73 2.08 15.59 2.08 16.75 3.24C17.91 4.4 17.91 6.26 17.91 10C17.91 13.73 17.91 15.59 16.75 16.75C15.59 17.91 13.73 17.91 10 17.91C6.26 17.91 4.4 17.91 3.24 16.75C2.08 15.59 2.08 13.73 2.08 10C2.08 6.26 2.08 4.4 3.24 3.24Z" stroke="#DCDCDC" stroke-opacity="1.000000" stroke-width="1.250000"/>
	<path id="Vector" d="M8.69 6.91C8.43 6.66 8.01 6.66 7.18 6.66C6.35 6.66 5.93 6.66 5.67 6.91C5.41 7.15 5.41 7.54 5.41 8.33C5.41 9.11 5.41 9.51 5.67 9.75C5.93 10 6.35 10 7.18 10C8.01 10 8.43 10 8.69 9.75C8.95 9.51 8.95 9.11 8.95 8.33C8.95 7.54 8.95 7.15 8.69 6.91ZM8.95 8.33L8.95 10.05C8.95 11.58 7.84 12.88 6.3 13.33M14.32 6.91C14.06 6.66 13.64 6.66 12.81 6.66C11.98 6.66 11.56 6.66 11.3 6.91C11.04 7.15 11.04 7.54 11.04 8.33C11.04 9.11 11.04 9.51 11.3 9.75C11.56 10 11.98 10 12.81 10C13.64 10 14.06 10 14.32 9.75C14.58 9.51 14.58 9.11 14.58 8.33C14.58 7.54 14.58 7.15 14.32 6.91ZM14.58 8.33L14.58 10.05C14.58 11.58 13.47 12.88 11.92 13.33" stroke="#DCDCDC" stroke-opacity="1.000000" stroke-width="1.250000" stroke-linecap="round"/>
</svg>
