<svg width="17.333344" height="19.838135" viewBox="0 0 17.3333 19.8381" fill="none" xmlns="http://www.w3.org/2000/svg" xmlns:xlink="http://www.w3.org/1999/xlink">
	<desc>
			Created with Pixso.
	</desc>
	<defs/>
	<path id="Vector" d="M11.3 0.75L11.8 1.68C12.14 2.31 12.3 2.62 12.19 2.76C12.08 2.89 11.71 2.78 10.98 2.57C10.25 2.35 9.47 2.23 8.66 2.23C4.29 2.23 0.75 5.67 0.75 9.91C0.75 11.31 1.13 12.63 1.8 13.76M6.02 19.08L5.52 18.15C5.19 17.52 5.02 17.2 5.13 17.07C5.24 16.93 5.61 17.04 6.34 17.26C7.08 17.48 7.85 17.6 8.66 17.6C13.03 17.6 16.58 14.16 16.58 9.91C16.58 8.51 16.19 7.2 15.52 6.07" stroke="#DCDCDC" stroke-opacity="1.000000" stroke-width="1.500000" stroke-linejoin="round" stroke-linecap="round"/>
</svg>
