<svg width="19.200012" height="14.197327" viewBox="0 0 19.2 14.1973" fill="none" xmlns="http://www.w3.org/2000/svg" xmlns:xlink="http://www.w3.org/1999/xlink">
	<desc>
			Created with Pixso.
	</desc>
	<defs/>
	<path id="Vector" d="M4.37 2.56C5.78 1.14 6.34 0.38 7.11 0.65C8.06 0.98 7.75 3.11 7.75 3.83C9.23 3.83 10.78 3.7 12.25 3.97C17.08 4.88 18.6 8.81 18.6 13.09C17.23 12.12 15.86 11.09 14.21 10.64C12.16 10.08 9.86 10.35 7.75 10.35C7.75 11.07 8.06 13.19 7.11 13.53C6.24 13.84 5.78 13.03 4.37 11.61L2.4 9.64C1.2 8.43 0.6 7.83 0.6 7.09C0.6 6.35 1.2 5.74 2.4 4.53L4.37 2.56Z" stroke="#DCDCDC" stroke-opacity="1.000000" stroke-width="1.200000" stroke-linejoin="round"/>
</svg>
