<svg width="19.999390" height="19.999451" viewBox="0 0 19.9994 19.9995" fill="none" xmlns="http://www.w3.org/2000/svg" xmlns:xlink="http://www.w3.org/1999/xlink">
	<desc>
			Created with Pixso.
	</desc>
	<defs/>
	<path id="Vector" d="M18.36 1.63C19.65 2.91 18.83 5.3 17.21 10.07L16.1 13.32C14.85 16.99 14.22 18.82 13.19 18.97C12.92 19.02 12.63 18.99 12.35 18.9C11.34 18.58 10.8 16.64 9.72 12.78C9.48 11.92 9.36 11.49 9.09 11.16C9.01 11.07 8.92 10.98 8.83 10.9C8.5 10.63 8.07 10.51 7.21 10.27C3.35 9.19 1.41 8.65 1.09 7.64C1 7.36 0.97 7.07 1.01 6.8C1.17 5.77 3 5.14 6.67 3.89L9.92 2.78C14.69 1.16 17.08 0.34 18.36 1.63Z" stroke="#FFFFFF" stroke-opacity="1.000000" stroke-width="2.000000"/>
</svg>
