<svg width="20.000000" height="20.000000" viewBox="0 0 20 20" fill="none" xmlns="http://www.w3.org/2000/svg" xmlns:xlink="http://www.w3.org/1999/xlink">
	<desc>
			Created with Pixso.
	</desc>
	<defs/>
	<path id="Vector" d="M8.75 6.66L15.41 6.66M8.75 9.99L10.83 9.99M15.41 9.99L13.33 9.99M8.75 13.33L10.83 13.33M15.41 13.33L13.33 13.33" stroke="#65728A" stroke-opacity="1.000000" stroke-width="1.200000" stroke-linejoin="round" stroke-linecap="round"/>
	<path id="Vector" d="M5 6.25C3.42 6.25 2.64 6.25 2.15 6.73C1.66 7.22 1.66 8.01 1.66 9.58L1.66 15C1.66 16.15 2.59 17.08 3.75 17.08C4.9 17.08 5.83 16.15 5.83 15L5.83 6.25L5 6.25Z" stroke="#65728A" stroke-opacity="1.000000" stroke-width="1.200000" stroke-linejoin="round"/>
	<path id="Vector" d="M9.16 2.91C8.39 2.91 8 2.91 7.68 3C6.82 3.23 6.14 3.9 5.91 4.76C5.83 5.08 5.83 5.47 5.83 6.24L5.83 15C5.83 16.15 4.9 17.08 3.75 17.08L13.33 17.08C15.69 17.08 16.86 17.08 17.6 16.35C18.33 15.61 18.33 14.44 18.33 12.08L18.33 7.91C18.33 5.55 18.33 4.38 17.6 3.64C16.86 2.91 15.69 2.91 13.33 2.91L9.16 2.91Z" stroke="#65728A" stroke-opacity="1.000000" stroke-width="1.200000" stroke-linejoin="round"/>
</svg>
