<svg width="20.000000" height="20.000000" viewBox="0 0 20 20" fill="none" xmlns="http://www.w3.org/2000/svg" xmlns:xlink="http://www.w3.org/1999/xlink">
	<desc>
			Created with Pixso.
	</desc>
	<defs/>
	<path id="Vector" d="M10 12.91C8.38 12.91 7.08 11.61 7.08 9.99C7.08 8.38 8.38 7.08 10 7.08C11.61 7.08 12.91 8.38 12.91 9.99C12.91 11.61 11.61 12.91 10 12.91Z" stroke="#65728A" stroke-opacity="1.000000" stroke-width="1.250000"/>
	<path id="Vector" d="M18.24 11.45C18.33 11.34 18.33 11.16 18.33 10.8L18.33 9.19C18.33 8.83 18.33 8.65 18.24 8.54C18.16 8.42 17.94 8.37 17.5 8.25C15.88 7.81 14.86 6.11 15.28 4.5C15.4 4.05 15.45 3.83 15.4 3.7C15.34 3.57 15.19 3.48 14.87 3.3L13.43 2.48C13.12 2.31 12.97 2.22 12.83 2.24C12.69 2.26 12.53 2.41 12.22 2.73C11 3.94 8.99 3.94 7.77 2.73C7.46 2.41 7.3 2.26 7.16 2.24C7.02 2.22 6.87 2.31 6.56 2.48L5.12 3.3C4.81 3.48 4.65 3.57 4.59 3.7C4.54 3.83 4.59 4.05 4.71 4.5C5.13 6.11 4.11 7.81 2.49 8.25C2.05 8.37 1.83 8.42 1.75 8.54C1.66 8.65 1.66 8.83 1.66 9.19L1.66 10.8C1.66 11.16 1.66 11.34 1.75 11.45C1.83 11.57 2.05 11.62 2.49 11.74C4.11 12.18 5.13 13.88 4.71 15.49C4.59 15.94 4.54 16.16 4.59 16.29C4.65 16.42 4.8 16.51 5.12 16.69L6.56 17.51C6.87 17.68 7.02 17.77 7.16 17.75C7.3 17.73 7.46 17.58 7.77 17.26C8.99 16.05 11 16.05 12.22 17.26C12.53 17.58 12.69 17.73 12.83 17.75C12.97 17.77 13.12 17.68 13.43 17.51L14.87 16.69C15.19 16.51 15.35 16.42 15.4 16.29C15.46 16.16 15.4 15.94 15.28 15.49C14.86 13.88 15.88 12.18 17.5 11.74C17.94 11.62 18.16 11.57 18.24 11.45Z" stroke="#65728A" stroke-opacity="1.000000" stroke-width="1.250000"/>
</svg>
