<svg width="20.000000" height="20.000000" viewBox="0 0 20 20" fill="none" xmlns="http://www.w3.org/2000/svg" xmlns:xlink="http://www.w3.org/1999/xlink">
	<desc>
			Created with Pixso.
	</desc>
	<defs/>
	<path id="Vector" d="M17.31 15C17.93 15 18.43 14.6 18.87 14.05C19.79 12.93 18.29 12.03 17.72 11.59C17.13 11.14 16.49 10.89 15.83 10.83M14.99 9.16C16.15 9.16 17.08 8.23 17.08 7.08C17.08 5.93 16.15 5 14.99 5" stroke="#65728A" stroke-opacity="1.000000" stroke-width="1.250000" stroke-linecap="round"/>
	<path id="Vector" d="M2.68 15C2.06 15 1.56 14.6 1.12 14.05C0.2 12.93 1.7 12.03 2.27 11.59C2.85 11.14 3.5 10.89 4.16 10.83M4.58 9.16C3.43 9.16 2.49 8.23 2.49 7.08C2.49 5.93 3.43 5 4.58 5" stroke="#65728A" stroke-opacity="1.000000" stroke-width="1.250000" stroke-linecap="round"/>
	<path id="Vector" d="M5.01 15.53C5.67 16.19 6.41 16.66 7.34 16.66L12.65 16.66C13.58 16.66 14.32 16.19 14.98 15.53C16.34 14.19 14.11 13.11 13.26 12.59C11.26 11.35 8.73 11.35 6.73 12.59C5.88 13.11 3.65 14.19 5.01 15.53Z" stroke="#65728A" stroke-opacity="1.000000" stroke-width="1.250000" stroke-linejoin="round"/>
	<path id="Vector" d="M9.99 9.16C8.38 9.16 7.08 7.86 7.08 6.24C7.08 4.63 8.38 3.33 9.99 3.33C11.61 3.33 12.91 4.63 12.91 6.24C12.91 7.86 11.61 9.16 9.99 9.16Z" stroke="#65728A" stroke-opacity="1.000000" stroke-width="1.250000"/>
</svg>
