<svg width="20.000000" height="20.000000" viewBox="0 0 20 20" fill="none" xmlns="http://www.w3.org/2000/svg" xmlns:xlink="http://www.w3.org/1999/xlink">
	<desc>
			Created with Pixso.
	</desc>
	<defs/>
	<path id="Vector" d="M5.83 5.83L5.84 5.83M10.82 5.83L10.83 5.83" stroke="#65728A" stroke-opacity="1.000000" stroke-width="1.666667" stroke-linejoin="round" stroke-linecap="round"/>
	<path id="Vector" d="M14.99 12.08L15 12.08M11.66 12.08L11.67 12.08" stroke="#65728A" stroke-opacity="1.000000" stroke-width="1.666667" stroke-linejoin="round" stroke-linecap="round"/>
	<path id="Vector" d="M13.33 17.5C14.08 17.5 14.8 17.36 15.44 17.1C15.6 17.04 15.77 17.02 15.94 17.05L18.33 17.5L17.79 15.8C17.71 15.56 17.75 15.29 17.88 15.06C18.17 14.53 18.33 13.95 18.33 13.33C18.33 11.03 16.09 9.16 13.33 9.16C10.57 9.16 8.33 11.03 8.33 13.33C8.33 15.63 10.57 17.5 13.33 17.5Z" stroke="#65728A" stroke-opacity="1.000000" stroke-width="1.250000" stroke-linejoin="round"/>
	<path id="Vector" d="M14.89 9.37C14.96 9.03 15 8.68 15 8.33C15 5.11 12.01 2.5 8.33 2.5C4.65 2.5 1.66 5.11 1.66 8.33C1.66 9.26 1.91 10.13 2.35 10.91C2.47 11.13 2.51 11.38 2.44 11.62L1.66 14.16L4.92 13.53C5.1 13.49 5.28 13.52 5.44 13.59C6.34 13.97 7.36 14.17 8.43 14.16" stroke="#65728A" stroke-opacity="1.000000" stroke-width="1.250000" stroke-linejoin="round"/>
</svg>
