<svg width="20.000000" height="20.000000" viewBox="0 0 20 20" fill="none" xmlns="http://www.w3.org/2000/svg" xmlns:xlink="http://www.w3.org/1999/xlink">
	<desc>
			Created with Pixso.
	</desc>
	<defs/>
	<path id="Vector" d="M3.24 3.24C4.4 2.08 6.26 2.08 10 2.08C13.73 2.08 15.59 2.08 16.75 3.24C17.91 4.4 17.91 6.26 17.91 10C17.91 13.73 17.91 15.59 16.75 16.75C15.59 17.91 13.73 17.91 10 17.91C6.26 17.91 4.4 17.91 3.24 16.75C2.08 15.59 2.08 13.73 2.08 10C2.08 6.26 2.08 4.4 3.24 3.24Z" stroke="#65728A" stroke-opacity="1.000000" stroke-width="1.250000"/>
	<path id="Vector" d="M8.33 7.5C8.33 6.57 9.07 5.83 10 5.83C10.92 5.83 11.66 6.57 11.66 7.5C11.66 7.83 11.56 8.14 11.4 8.4C10.9 9.17 10 9.91 10 10.83L10 11.25" stroke="#65728A" stroke-opacity="1.000000" stroke-width="1.250000" stroke-linecap="round"/>
	<path id="Vector" d="M9.99 14.16L10 14.16" stroke="#65728A" stroke-opacity="1.000000" stroke-width="1.666667" stroke-linejoin="round" stroke-linecap="round"/>
</svg>
