<svg width="20.000000" height="20.000000" viewBox="0 0 20 20" fill="none" xmlns="http://www.w3.org/2000/svg" xmlns:xlink="http://www.w3.org/1999/xlink">
	<desc>
			Created with Pixso.
	</desc>
	<defs/>
	<path id="Vector" d="M9.16 4.58L17.5 4.58" stroke="#65728A" stroke-opacity="1.000000" stroke-width="1.250000" stroke-linecap="round"/>
	<path id="Vector" d="M5.83 15.41C5.83 15.86 5.38 16.16 4.5 16.75C3.61 17.35 3.16 17.64 2.83 17.42C2.5 17.2 2.5 16.6 2.5 15.41C2.5 14.22 2.5 13.63 2.83 13.4C3.16 13.18 3.61 13.48 4.5 14.07C5.38 14.67 5.83 14.97 5.83 15.41Z" stroke="#65728A" stroke-opacity="1.000000" stroke-width="1.250000"/>
	<path id="Vector" d="M5.83 4.58C5.83 5.02 5.38 5.32 4.5 5.92C3.61 6.51 3.16 6.81 2.83 6.59C2.5 6.36 2.5 5.77 2.5 4.58C2.5 3.39 2.5 2.79 2.83 2.57C3.16 2.35 3.61 2.64 4.5 3.24C5.38 3.83 5.83 4.13 5.83 4.58Z" stroke="#65728A" stroke-opacity="1.000000" stroke-width="1.250000"/>
	<path id="Vector" d="M9.16 10L17.5 10" stroke="#65728A" stroke-opacity="1.000000" stroke-width="1.250000" stroke-linecap="round"/>
	<path id="Vector" d="M9.16 15.41L17.5 15.41" stroke="#65728A" stroke-opacity="1.000000" stroke-width="1.250000" stroke-linecap="round"/>
</svg>
