<svg width="16.000000" height="16.000000" viewBox="0 0 16 16" fill="none" xmlns="http://www.w3.org/2000/svg" xmlns:xlink="http://www.w3.org/1999/xlink">
	<desc>
			Created with Pixso.
	</desc>
	<defs/>
	<path id="Vector" d="M7 9.33C7.21 8.89 7.51 8.66 8 8.66C8.48 8.66 9 8.97 9 9.5C9 9.96 8.62 10.33 8.16 10.33C8.62 10.33 9 10.7 9 11.16C9 11.69 8.48 12 8 12C7.51 12 7.21 11.76 7 11.33" stroke="#404145" stroke-opacity="1.000000" stroke-width="1.000000" stroke-linejoin="round" stroke-linecap="round"/>
	<path id="Vector" d="M8 14.66C5.6 14.66 3.66 12.72 3.66 10.33C3.66 7.94 5.6 6 8 6C10.39 6 12.33 7.94 12.33 10.33C12.33 12.72 10.39 14.66 8 14.66Z" stroke="#404145" stroke-opacity="1.000000" stroke-width="1.000000"/>
	<path id="Vector" d="M6 6.33L3.66 1.33" stroke="#404145" stroke-opacity="1.000000" stroke-width="1.000000" stroke-linejoin="round" stroke-linecap="round"/>
	<path id="Vector" d="M10 6.33L12.33 1.33" stroke="#404145" stroke-opacity="1.000000" stroke-width="1.000000" stroke-linejoin="round" stroke-linecap="round"/>
	<path id="Vector" d="M10 1.33L9.33 3" stroke="#404145" stroke-opacity="1.000000" stroke-width="1.000000" stroke-linejoin="round" stroke-linecap="round"/>
	<path id="Vector" d="M8.33 6L6.33 1.33" stroke="#404145" stroke-opacity="1.000000" stroke-width="1.000000" stroke-linejoin="round" stroke-linecap="round"/>
</svg>
