<svg width="26.000000" height="24.000000" viewBox="0 0 26 24" fill="none" xmlns="http://www.w3.org/2000/svg" xmlns:xlink="http://www.w3.org/1999/xlink">
	<desc>
			Created with Pixso.
	</desc>
	<defs/>
	<path id="Vector" d="M17.8 20.18C16.98 20.95 16.07 21.5 14.93 21.5L8.4 21.5C7.25 21.5 6.34 20.95 5.52 20.18C3.85 18.61 6.6 17.36 7.65 16.74C10.1 15.3 13.22 15.3 15.68 16.74C16.73 17.36 19.47 18.61 17.8 20.18Z" stroke="#7E8CA7" stroke-opacity="1.000000" stroke-width="1.500000" stroke-linejoin="round"/>
	<path id="Vector" d="M11.66 13.16C13.5 13.16 15 11.67 15 9.83C15 7.99 13.5 6.5 11.66 6.5C9.82 6.5 8.33 7.99 8.33 9.83C8.33 11.67 9.82 13.16 11.66 13.16Z" stroke="#7E8CA7" stroke-opacity="1.000000" stroke-width="1.500000"/>
	<path id="Vector" d="M3.75 7.33L3.75 11.5M1.66 9.41L5.83 9.41" stroke="#7E8CA7" stroke-opacity="1.000000" stroke-width="1.500000" stroke-linejoin="round" stroke-linecap="round"/>
	<rect id="Rectangle 6" x="13.000000" rx="6.000000" width="13.000000" height="12.000000" fill="#FF4F37" fill-opacity="1.000000"/>
	<rect id="Rectangle 6" x="13.250000" y="0.250000" rx="5.750000" width="12.500000" height="11.500000" stroke="#FF4329" stroke-opacity="1.000000" stroke-width="0.500000"/>
	<path id="5" d="M21.76 7.06C21.77 8.23 20.89 9.08 19.59 9.08C18.39 9.08 17.51 8.36 17.49 7.35L18.68 7.35C18.71 7.8 19.1 8.11 19.59 8.11C20.17 8.11 20.58 7.69 20.58 7.09C20.58 6.48 20.16 6.05 19.58 6.05C19.23 6.05 18.88 6.2 18.71 6.44L17.61 6.25L17.89 3.18L21.44 3.18L21.44 4.18L18.9 4.18L18.75 5.64L18.78 5.64C18.99 5.35 19.43 5.14 19.94 5.14C20.99 5.14 21.77 5.94 21.76 7.06Z" fill="#FFFFFF" fill-opacity="1.000000" fill-rule="evenodd"/>
</svg>
