<svg width="16.000000" height="16.000000" viewBox="0 0 16 16" fill="none" xmlns="http://www.w3.org/2000/svg" xmlns:xlink="http://www.w3.org/1999/xlink">
	<desc>
			Created with Pixso.
	</desc>
	<defs/>
	<path id="Vector" d="M8 5.66C7.17 5.66 6 4.43 6 3.33C6 2.22 6.89 1.33 8 1.33C9.1 1.33 10 2.22 10 3.33C10 4.43 8.82 5.66 8 5.66Z" stroke="#727272" stroke-opacity="1.000000" stroke-width="1.000000"/>
	<path id="Vector" d="M10.69 6C11.7 6.89 12.36 8.39 11.77 9.8C11.64 10.1 11.35 10.3 11.03 10.3C10.7 10.3 10.16 10.19 10.06 10.62L9.32 13.6C9.17 14.23 8.62 14.66 8 14.66C7.37 14.66 6.82 14.23 6.67 13.6L5.93 10.62C5.83 10.19 5.29 10.3 4.96 10.3C4.64 10.3 4.35 10.1 4.22 9.8C3.63 8.39 4.29 6.89 5.3 6" stroke="#727272" stroke-opacity="1.000000" stroke-width="1.000000" stroke-linecap="round"/>
</svg>
