<svg width="20.000000" height="20.000000" viewBox="0 0 20 20" fill="none" xmlns="http://www.w3.org/2000/svg" xmlns:xlink="http://www.w3.org/1999/xlink">
	<desc>
			Created with Pixso.
	</desc>
	<defs/>
	<path id="Vector" d="M7.5 9.16C5.65 9.16 4.16 7.67 4.16 5.83C4.16 3.99 5.65 2.5 7.5 2.5C9.34 2.5 10.83 3.99 10.83 5.83C10.83 7.67 9.34 9.16 7.5 9.16Z" stroke="#DCDCDC" stroke-opacity="1.000000" stroke-width="1.250000"/>
	<path id="Vector" d="M12.5 9.16C14.34 9.16 15.83 7.67 15.83 5.83C15.83 3.99 14.34 2.5 12.5 2.5" stroke="#DCDCDC" stroke-opacity="1.000000" stroke-width="1.250000" stroke-linejoin="round" stroke-linecap="round"/>
	<path id="Vector" d="M5.83 11.66C3.53 11.66 1.66 13.53 1.66 15.83C1.66 16.75 2.41 17.5 3.33 17.5L11.66 17.5C12.58 17.5 13.33 16.75 13.33 15.83C13.33 13.53 11.46 11.66 9.16 11.66L5.83 11.66Z" stroke="#DCDCDC" stroke-opacity="1.000000" stroke-width="1.250000" stroke-linejoin="round"/>
	<path id="Vector" d="M14.16 11.66C16.46 11.66 18.33 13.53 18.33 15.83C18.33 16.75 17.58 17.5 16.66 17.5L15.41 17.5" stroke="#DCDCDC" stroke-opacity="1.000000" stroke-width="1.250000" stroke-linejoin="round" stroke-linecap="round"/>
</svg>
