<svg width="20.000000" height="20.000000" viewBox="0 0 20 20" fill="none" xmlns="http://www.w3.org/2000/svg" xmlns:xlink="http://www.w3.org/1999/xlink">
	<desc>
			Created with Pixso.
	</desc>
	<defs/>
	<path id="Vector" d="M8.75 18.33L5.49 18.33C4.2 18.33 3.18 17.7 2.26 16.83C0.37 15.03 3.46 13.6 4.64 12.9C6.77 11.63 9.33 11.34 11.66 12.02" stroke="#169C4F" stroke-opacity="1.000000" stroke-width="1.250000" stroke-linejoin="round" stroke-linecap="round"/>
	<path id="Vector" d="M10 9.16C7.92 9.16 6.25 7.48 6.25 5.41C6.25 3.34 7.92 1.66 10 1.66C12.07 1.66 13.75 3.34 13.75 5.41C13.75 7.48 12.07 9.16 10 9.16Z" stroke="#169C4F" stroke-opacity="1.000000" stroke-width="1.250000"/>
	<path id="Vector" d="M15.92 10.99C16.28 10.78 16.72 10.77 17.09 10.98C17.24 11.06 17.38 11.21 17.67 11.5C17.96 11.79 18.1 11.94 18.18 12.1C18.38 12.47 18.38 12.92 18.17 13.28C18.08 13.44 17.93 13.58 17.64 13.86L14.11 17.26C13.55 17.8 13.27 18.07 12.92 18.21C12.57 18.35 12.18 18.34 11.41 18.32L11.3 18.31C11.07 18.31 10.95 18.3 10.88 18.23C10.81 18.15 10.82 18.03 10.84 17.79L10.85 17.66C10.9 16.99 10.93 16.65 11.06 16.35C11.19 16.04 11.42 15.8 11.87 15.31L15.36 11.54C15.64 11.23 15.78 11.08 15.92 10.99Z" stroke="#169C4F" stroke-opacity="1.000000" stroke-width="1.250000" stroke-linejoin="round"/>
</svg>
