<svg width="20.000000" height="20.000000" viewBox="0 0 20 20" fill="none" xmlns="http://www.w3.org/2000/svg" xmlns:xlink="http://www.w3.org/1999/xlink">
	<desc>
			Created with Pixso.
	</desc>
	<defs/>
	<path id="Vector" d="M3.09 16.83C4.01 17.7 5.03 18.33 6.32 18.33L13.67 18.33C14.96 18.33 15.98 17.7 16.9 16.83C18.78 15.03 15.69 13.6 14.51 12.9C11.75 11.25 8.24 11.25 5.48 12.9C4.3 13.6 1.21 15.03 3.09 16.83Z" stroke="#727272" stroke-opacity="1.000000" stroke-width="1.250000" stroke-linejoin="round"/>
	<path id="Vector" d="M10 9.16C7.92 9.16 6.25 7.48 6.25 5.41C6.25 3.34 7.92 1.66 10 1.66C12.07 1.66 13.75 3.34 13.75 5.41C13.75 7.48 12.07 9.16 10 9.16Z" stroke="#727272" stroke-opacity="1.000000" stroke-width="1.250000"/>
</svg>
