<svg width="20.000000" height="20.000000" viewBox="0 0 20 20" fill="none" xmlns="http://www.w3.org/2000/svg" xmlns:xlink="http://www.w3.org/1999/xlink">
	<desc>
			Created with Pixso.
	</desc>
	<defs/>
	<path id="Vector" d="M10.83 18.33L5.49 18.33C4.2 18.33 3.18 17.7 2.26 16.83C0.37 15.03 3.46 13.6 4.64 12.9C6.64 11.71 9.03 11.38 11.25 11.91" stroke="#FE3030" stroke-opacity="1.000000" stroke-width="1.250000" stroke-linejoin="round" stroke-linecap="round"/>
	<path id="Vector" d="M10 9.16C7.92 9.16 6.25 7.48 6.25 5.41C6.25 3.34 7.92 1.66 10 1.66C12.07 1.66 13.75 3.34 13.75 5.41C13.75 7.48 12.07 9.16 10 9.16Z" stroke="#FE3030" stroke-opacity="1.000000" stroke-width="1.250000"/>
	<path id="Vector" d="M13.37 13.37L17.45 17.45M15.41 12.5C13.8 12.5 12.5 13.8 12.5 15.41C12.5 17.02 13.8 18.33 15.41 18.33C17.02 18.33 18.33 17.02 18.33 15.41C18.33 13.8 17.02 12.5 15.41 12.5Z" stroke="#FE3030" stroke-opacity="1.000000" stroke-width="1.250000" stroke-linecap="round"/>
</svg>
