<svg width="20.000000" height="20.000000" viewBox="0 0 20 20" fill="none" xmlns="http://www.w3.org/2000/svg" xmlns:xlink="http://www.w3.org/1999/xlink">
	<desc>
			Created with Pixso.
	</desc>
	<defs/>
	<path id="Vector" d="M16.25 4.58L15.73 12.93C15.6 15.07 15.53 16.13 15 16.9C14.73 17.28 14.39 17.6 14 17.84C13.2 18.33 12.13 18.33 9.99 18.33C7.85 18.33 6.78 18.33 5.98 17.84C5.58 17.6 5.24 17.28 4.98 16.9C4.44 16.13 4.38 15.06 4.25 12.92L3.75 4.58" stroke="#DCDCDC" stroke-opacity="1.000000" stroke-width="1.250000" stroke-linecap="round"/>
	<path id="Vector" d="M2.5 4.58L17.5 4.58M13.37 4.58L12.81 3.4C12.43 2.63 12.24 2.24 11.91 1.99C11.84 1.94 11.76 1.89 11.68 1.85C11.32 1.66 10.89 1.66 10.02 1.66C9.14 1.66 8.69 1.66 8.32 1.86C8.24 1.9 8.17 1.95 8.09 2.01C7.76 2.26 7.58 2.66 7.21 3.47L6.71 4.58" stroke="#DCDCDC" stroke-opacity="1.000000" stroke-width="1.250000" stroke-linecap="round"/>
	<path id="Vector" d="M7.91 13.75L7.91 8.75" stroke="#DCDCDC" stroke-opacity="1.000000" stroke-width="1.250000" stroke-linecap="round"/>
	<path id="Vector" d="M12.08 13.75L12.08 8.75" stroke="#DCDCDC" stroke-opacity="1.000000" stroke-width="1.250000" stroke-linecap="round"/>
</svg>
