<svg width="20.000000" height="20.000000" viewBox="0 0 20 20" fill="none" xmlns="http://www.w3.org/2000/svg" xmlns:xlink="http://www.w3.org/1999/xlink">
	<desc>
			Created with Pixso.
	</desc>
	<defs/>
	<path id="Vector" d="M2.5 17.5L6.66 13.33" stroke="#DCDCDC" stroke-opacity="1.000000" stroke-width="1.250000" stroke-linejoin="round" stroke-linecap="round"/>
	<path id="Vector" d="M4.27 8.95C4.16 8.45 4.1 8.21 4.26 7.8C4.43 7.4 4.62 7.28 5.02 7.03C5.92 6.47 6.89 6.29 7.9 6.38C9.31 6.51 10.02 6.57 10.37 6.39C10.72 6.2 10.96 5.77 11.44 4.91L12.05 3.83C12.45 3.11 12.65 2.75 13.12 2.58C13.59 2.41 13.87 2.51 14.44 2.72C15.77 3.2 16.79 4.22 17.27 5.55C17.48 6.12 17.58 6.4 17.41 6.87C17.24 7.34 16.88 7.54 16.16 7.94L15.05 8.56C14.19 9.04 13.76 9.28 13.58 9.64C13.4 9.99 13.46 10.68 13.6 12.07C13.7 13.08 13.53 14.06 12.96 14.97C12.71 15.37 12.59 15.56 12.19 15.73C11.78 15.89 11.54 15.83 11.04 15.72C7.92 15.01 4.98 12.07 4.27 8.95Z" stroke="#DCDCDC" stroke-opacity="1.000000" stroke-width="1.250000" stroke-linejoin="round"/>
</svg>
